<?xml version="1.0" encoding="UTF-8"?>
<svg id="Camada_2" data-name="Camada 2" xmlns="http://www.w3.org/2000/svg" viewBox="0 0 1584.36 317">
  <defs>
    <style>
      .cls-1 {
        fill: #f2f2f3;
      }
    </style>
  </defs>
  <g id="Camada_2-2" data-name="Camada 2">
    <g>
      <path class="cls-1" d="M405.56,167.22c.92,17.03,10.59,28.08,25.32,28.08,9.67,0,18.19-4.83,20.26-12.66h30.85c-6.91,23.25-25.55,36.37-49.72,36.37-37.75,0-56.63-20.72-56.63-61.69,0-34.99,20.03-57.55,54.79-57.55s53.17,22.56,53.17,67.45h-78.04ZM452.75,148.35c-.46-16.8-11.51-24.86-23.25-24.86s-21.87,9.21-23.02,24.86h46.27Z"/>
      <path class="cls-1" d="M564.85,216.02c-.92-2.76-1.61-6.68-1.84-10.13-7.14,7.83-19.11,13.12-34.3,13.12-25.78,0-37.75-12.66-37.75-31.08,0-32.69,21.87-36.37,52.02-40.51,14.96-2.07,19.11-5.06,19.11-12.89,0-7.37-7.37-11.74-19.11-11.74-13.58,0-19.11,6.68-20.49,16.8h-27.85c.46-23.48,13.35-39.82,49.72-39.82s48.34,16.11,48.34,44.66v71.59h-27.85ZM562.78,160.55c-2.99,2.99-8.29,4.6-19.34,6.68-17.03,3.22-22.56,8.06-22.56,17.72,0,8.52,5.06,12.66,14.5,12.66,15.42,0,26.93-11.28,27.16-24.63l.23-12.43Z"/>
      <path class="cls-1" d="M673.96,137.07c-1.61-11.05-7.6-14.96-21.18-14.96-11.28,0-17.72,2.76-17.72,9.44s6.21,9.44,18.42,12.89c12.89,3.68,25.09,6.22,33.84,9.67,11.97,4.83,18.65,12.66,18.65,27.39,0,23.48-17.26,37.52-49.49,37.52-34.76,0-54.1-16.34-54.56-39.36h30.85c0,10.59,8.98,16.8,23.48,16.8,10.59,0,20.03-3.22,20.03-11.74,0-8.06-8.52-10.59-18.19-12.89-19.11-4.6-29.7-7.83-37.75-12.89-10.59-6.68-14.27-15.42-14.27-25.55,0-19.11,13.12-33.61,47.65-33.61,32.69,0,47.42,12.89,49.03,37.29h-28.77Z"/>
      <path class="cls-1" d="M741.87,167.22c.92,17.03,10.59,28.08,25.32,28.08,9.67,0,18.19-4.83,20.26-12.66h30.85c-6.91,23.25-25.55,36.37-49.72,36.37-37.75,0-56.63-20.72-56.63-61.69,0-34.99,20.03-57.55,54.79-57.55s53.17,22.56,53.17,67.45h-78.04ZM789.06,148.35c-.46-16.8-11.51-24.86-23.25-24.86s-21.87,9.21-23.02,24.86h46.27Z"/>
      <path class="cls-1" d="M987.71,175.05c-3.22,26.24-24.63,43.97-52.02,43.97-30.85,0-52.02-20.49-52.02-61s21.18-58.24,52.95-58.24c29.46,0,49.49,16.8,51.33,43.51h-30.16c-1.61-11.74-10.13-18.65-21.41-18.65-12.66,0-23.02,8.06-23.02,32.69s10.36,36.6,22.1,36.6,20.95-6.68,22.1-18.88h30.16Z"/>
      <path class="cls-1" d="M996.46,216.02V61.33h29.92v154.69h-29.92Z"/>
      <path class="cls-1" d="M1049.4,88.5l-7.14-12.66,47.65-27.85,10.82,18.88-51.33,21.64ZM1048.94,216.02v-113.26h29.92v113.26h-29.92Z"/>
      <path class="cls-1" d="M1174.17,216.02v-68.6c0-17.5-5.06-22.33-19.34-22.33-15.65,0-23.25,8.75-23.25,26.01v64.92h-29.92v-113.26h28.54v16.57c6.91-12.66,18.42-19.57,36.6-19.57,21.64,0,37.52,13.12,37.52,37.75v78.5h-30.16Z"/>
      <path class="cls-1" d="M1218.13,89.19v-27.85h29.92v27.85h-29.92ZM1218.13,216.02v-113.26h29.92v113.26h-29.92Z"/>
      <path class="cls-1" d="M1363.61,175.05c-3.22,26.24-24.63,43.97-52.02,43.97-30.85,0-52.02-20.49-52.02-61s21.18-58.24,52.95-58.24c29.46,0,49.49,16.8,51.33,43.51h-30.16c-1.61-11.74-10.13-18.65-21.41-18.65-12.66,0-23.02,8.06-23.02,32.69s10.36,36.6,22.1,36.6,20.95-6.68,22.1-18.88h30.16Z"/>
      <path class="cls-1" d="M1443.26,216.02c-.92-2.76-1.61-6.68-1.84-10.13-7.14,7.83-19.11,13.12-34.3,13.12-25.78,0-37.75-12.66-37.75-31.08,0-32.69,21.87-36.37,52.02-40.51,14.96-2.07,19.11-5.06,19.11-12.89,0-7.37-7.37-11.74-19.11-11.74-13.58,0-19.11,6.68-20.49,16.8h-27.85c.46-23.48,13.35-39.82,49.72-39.82s48.34,16.11,48.34,44.66v71.59h-27.85ZM1441.18,160.55c-2.99,2.99-8.29,4.6-19.34,6.68-17.03,3.22-22.56,8.06-22.56,17.72,0,8.52,5.06,12.66,14.5,12.66,15.42,0,26.93-11.28,27.16-24.63l.23-12.43Z"/>
      <path class="cls-1" d="M1552.37,137.07c-1.61-11.05-7.6-14.96-21.18-14.96-11.28,0-17.72,2.76-17.72,9.44s6.21,9.44,18.42,12.89c12.89,3.68,25.09,6.22,33.84,9.67,11.97,4.83,18.65,12.66,18.65,27.39,0,23.48-17.26,37.52-49.49,37.52-34.76,0-54.1-16.34-54.56-39.36h30.85c0,10.59,8.98,16.8,23.48,16.8,10.59,0,20.03-3.22,20.03-11.74,0-8.06-8.52-10.59-18.19-12.89-19.11-4.6-29.7-7.83-37.75-12.89-10.59-6.68-14.27-15.42-14.27-25.55,0-19.11,13.12-33.61,47.65-33.61,32.69,0,47.42,12.89,49.03,37.29h-28.77Z"/>
    </g>
    <g>
      <path class="cls-1" d="M102.1,122.59c-11.97,0-21.87,9.21-23.02,24.86h46.27c-.46-16.8-11.51-24.86-23.25-24.86Z"/>
      <path class="cls-1" d="M290.32,0H26.68C11.95,0,0,11.95,0,26.68v263.64c0,14.74,11.95,26.68,26.68,26.68h263.64c14.74,0,26.68-11.95,26.68-26.68V26.68c0-14.74-11.95-26.68-26.68-26.68ZM103.48,194.41c9.67,0,18.19-4.83,20.26-12.66h30.85c-6.91,23.25-25.55,36.37-49.72,36.37-37.75,0-56.63-20.72-56.63-61.69,0-34.99,20.03-57.55,54.79-57.55s53.17,22.56,53.17,67.45h-78.04c.92,17.03,10.59,28.08,25.32,28.08ZM216.28,193.03c11.74,0,20.95-6.68,22.1-18.88h30.16c-3.22,26.24-24.63,43.97-52.02,43.97-30.85,0-52.02-20.49-52.02-61s21.18-58.24,52.95-58.24c29.46,0,49.49,16.8,51.33,43.51h-30.16c-1.61-11.74-10.13-18.65-21.41-18.65-12.66,0-23.02,8.06-23.02,32.69s10.36,36.6,22.1,36.6Z"/>
    </g>
  </g>
</svg>