<svg width="36" height="36" viewBox="0 0 36 36" fill="none" xmlns="http://www.w3.org/2000/svg">
<g clip-path="url(#clip0_336_199)">
<path d="M18.0699 0C8.29988 0 0.379883 7.92 0.379883 17.69C0.379883 27.46 8.29988 35.38 18.0699 35.38C27.8399 35.38 35.7599 27.46 35.7599 17.69C35.7599 7.92 27.8399 0 18.0699 0ZM9.04988 8.61H27.0799C27.4799 8.61 27.8499 8.69 28.1899 8.84C28.1099 8.89 28.0299 8.94 27.9599 9.02L19.8999 18.16C19.4299 18.69 18.7599 18.99 18.0599 18.99C17.3599 18.99 16.6799 18.69 16.2199 18.16L8.02988 8.86C8.02988 8.86 7.99988 8.83 7.98988 8.82C8.31988 8.68 8.67988 8.61 9.05988 8.61H9.04988ZM29.8699 23.99C29.8699 25.53 28.6199 26.78 27.0799 26.78H9.04988C7.50988 26.78 6.25988 25.53 6.25988 23.99V11.39C6.25988 10.86 6.40988 10.37 6.65988 9.95C6.66988 9.97 6.68988 9.99 6.69988 10.01L14.8999 19.32C15.6999 20.23 16.8499 20.74 18.0599 20.74C19.2699 20.74 20.4199 20.22 21.2199 19.32L29.2799 10.18C29.3499 10.1 29.3999 10.01 29.4399 9.91C29.7099 10.34 29.8699 10.85 29.8699 11.39V23.99Z" fill="#E3E8F3"/>
</g>
<defs>
<clipPath id="clip0_336_199">
<rect width="35.38" height="35.38" fill="white" transform="translate(0.379883)"/>
</clipPath>
</defs>
</svg>
