<svg width="17" height="18" viewBox="0 0 17 18" fill="none" xmlns="http://www.w3.org/2000/svg">
<path fill-rule="evenodd" clip-rule="evenodd" d="M16.7803 0.969691C16.9841 1.17342 17.0531 1.47584 16.9579 1.74778L11.7079 16.7478C11.6063 17.038 11.3378 17.2369 11.0306 17.2494C10.7233 17.2619 10.4395 17.0856 10.3146 16.8046L7.4318 10.3182L0.9454 7.43538C0.66439 7.31049 0.488092 7.02671 0.500627 6.71945C0.513163 6.41219 0.711991 6.14371 1.00224 6.04213L16.0022 0.792127C16.2742 0.696948 16.5766 0.765962 16.7803 0.969691ZM8.89456 9.91612L10.9171 14.4667L14.4564 4.35429L8.89456 9.91612ZM13.3957 3.29362L3.28331 6.83297L7.8339 8.85546L13.3957 3.29362Z" fill="#E3E8F3"/>
</svg>
