<svg width="36" height="36" viewBox="0 0 36 36" fill="none" xmlns="http://www.w3.org/2000/svg">
<g clip-path="url(#clip0_336_195)">
<path d="M21.83 9.25H13.55C11.19 9.25 9.27002 11.17 9.27002 13.53V21.81C9.27002 24.17 11.19 26.09 13.55 26.09H21.83C24.19 26.09 26.11 24.17 26.11 21.81V13.53C26.11 11.17 24.19 9.25 21.83 9.25ZM17.78 22.77C14.96 22.77 12.67 20.48 12.67 17.66C12.67 14.84 14.96 12.55 17.78 12.55C20.6 12.55 22.89 14.84 22.89 17.66C22.89 20.48 20.6 22.77 17.78 22.77ZM23.18 13.43C22.51 13.43 21.96 12.89 21.96 12.21C21.96 11.53 22.5 10.99 23.18 10.99C23.86 10.99 24.4 11.53 24.4 12.21C24.4 12.89 23.86 13.43 23.18 13.43Z" fill="#E3E8F3"/>
<path d="M17.7798 14.3899C15.9798 14.3899 14.5098 15.8599 14.5098 17.6599C14.5098 19.4599 15.9798 20.9299 17.7798 20.9299C19.5798 20.9299 21.0498 19.4599 21.0498 17.6599C21.0498 15.8599 19.5798 14.3899 17.7798 14.3899Z" fill="#E3E8F3"/>
<path d="M17.69 0C7.92 0 0 7.92 0 17.69C0 27.46 7.92 35.38 17.69 35.38C27.46 35.38 35.38 27.46 35.38 17.69C35.38 7.92 27.46 0 17.69 0ZM28.06 21.81C28.06 25.25 25.26 28.04 21.83 28.04H13.55C10.11 28.04 7.32 25.24 7.32 21.81V13.53C7.32 10.09 10.11 7.3 13.55 7.3H21.83C25.27 7.3 28.06 10.09 28.06 13.53V21.81Z" fill="#E3E8F3"/>
</g>
<defs>
<clipPath id="clip0_336_195">
<rect width="35.38" height="35.38" fill="white"/>
</clipPath>
</defs>
</svg>
